<?xml version="1.0" encoding="UTF-8" standalone="no"?>
<!-- Created with Inkscape (http://www.inkscape.org/) -->
<svg
   xmlns:svg="http://www.w3.org/2000/svg"
   xmlns="http://www.w3.org/2000/svg"
   xmlns:xlink="http://www.w3.org/1999/xlink"
   version="1.0"
   width="44"
   height="44"
   id="svg2">
  <defs
     id="defs4">
    <linearGradient
       id="linearGradient2779">
      <stop
         style="stop-color:#bbb;stop-opacity:1"
         offset="0"
         id="stop2781" />
      <stop
         style="stop-color:#f4f4f4;stop-opacity:1"
         offset="1"
         id="stop2783" />
    </linearGradient>
    <linearGradient
       x1="47.76152"
       y1="18.860083"
       x2="10.598763"
       y2="26.461481"
       id="linearGradient2785"
       xlink:href="#linearGradient2779"
       gradientUnits="userSpaceOnUse"
       gradientTransform="translate(-6.982678,2.828423)" />
    <linearGradient
       x1="47.76152"
       y1="18.860083"
       x2="10.598763"
       y2="26.461481"
       id="linearGradient1889"
       xlink:href="#linearGradient2779"
       gradientUnits="userSpaceOnUse"
       gradientTransform="translate(-6.982678,2.828423)" />
  </defs>
  <g
     transform="translate(-2.241522,-9.252902)"
     style="display:inline"
     id="layer1">
    <g
       transform="translate(8.906571e-2,6.559187)"
       id="g1884">
      <path
         d="M 12.60406,33.140217 C 14.052279,38.498572 13.622105,40.138267 20.010395,39.50634 C 26.048658,38.909039 28.657039,35.908451 25.583132,34.210803 C 22.441722,32.475874 25.301726,30.783986 27.235793,30.06541 C 29.16986,29.346834 31.681418,28.564633 33.203304,29.593656 C 34.72519,30.622679 31.614157,32.357409 33.295234,34.340672 C 34.998007,36.349532 42.079889,32.422862 44.507967,31.164952 C 46.866092,29.943283 44.748932,26.353538 43.234006,23.833155 C 41.680234,21.248144 39.700258,21.057034 38.18909,23.16178 C 36.71949,25.20863 35.232045,24.195949 34.150624,21.52818 C 33.099902,18.936143 34.566036,18.107955 36.456578,19.176318 C 38.34712,20.24468 41.794672,18.989663 38.280439,13.710265 C 34.725541,8.3697782 34.818416,13.196117 28.932257,13.717722 C 22.958393,14.2471 29.072982,8.3636462 20.164563,10.06167 C 11.341448,11.743434 23.108282,15.399987 16.995559,16.170942 C 10.795841,16.95287 6.7349174,16.696051 8.845768,18.910499 C 10.91501,21.081299 11.932846,24.142977 9.9048088,25.173218 C 7.8767724,26.203459 1.5707193,22.357462 2.9322073,29.865769 C 4.2907925,37.358071 11.161686,27.803489 12.60406,33.140217 z "
         style="fill:url(#linearGradient1889);fill-opacity:1;fill-rule:evenodd;stroke:#555753;stroke-width:1;stroke-linecap:butt;stroke-linejoin:miter;stroke-miterlimit:4;stroke-dasharray:none;stroke-opacity:1"
         id="path1882" />
      <path
         d="M 22.84559,10.166053 C 22.162171,10.168655 21.28729,10.306869 20.18934,10.478553 C 12.068917,11.74487 22.978413,15.495717 17.736406,16.403109 C 11.699084,17.443783 7.0259746,16.941507 9.0955898,19.103553 C 11.124407,21.222985 12.82017,24.10095 10.017465,25.634803 C 8.0014467,26.738121 1.995074,22.89792 3.3143398,29.791053 C 3.735541,31.986831 4.7436944,32.472183 5.6737148,32.353553 C 5.0443101,31.981242 4.5544939,31.562736 4.2830898,30.072303 C 2.948199,22.74167 7.6027301,27.712967 10.559898,26.300856 C 12.570752,25.34063 12.919902,21.901982 10.891085,19.782551 C 8.8214698,17.620505 12.790385,17.991058 18.868989,17.227633 C 24.862297,16.474921 13.157306,12.348423 21.18934,10.728553 C 22.729744,10.418743 23.794086,10.384562 24.56434,10.478553 C 24.16976,10.281764 23.642912,10.163018 22.84559,10.166053 z M 35.010993,11.62565 C 30.58477,14.728297 28.351545,14.201956 27.680187,14.262024 C 30.027323,15.687213 33.708836,13.275417 36.519226,12.260453 C 36.147067,11.823853 35.328244,11.589364 35.010993,11.62565 z M 40.510073,22.185009 C 39.759377,22.217944 39.033294,22.692223 38.385073,23.591259 C 37.934795,24.215764 37.305559,24.650068 36.864546,24.732994 C 37.604379,25.230934 38.584844,24.951121 39.385073,23.841259 C 40.070335,22.890849 40.552721,22.448245 41.347811,22.466259 C 40.975584,22.264576 40.884196,22.168595 40.510073,22.185009 z M 33.318246,29.080115 C 35.635403,30.539556 32.125897,32.385375 33.68934,34.041053 C 34.008777,34.379335 34.351551,34.406064 35.072153,34.400428 C 34.929007,34.321068 34.74153,34.325496 34.634653,34.205115 C 33.158291,32.542221 36.118995,30.639476 34.62684,29.634803 C 34.229519,29.367285 33.824156,29.131431 33.318246,29.080115 z M 11.892465,31.228553 C 12.258191,31.476864 12.808182,32.296294 13.00184,33.009803 C 14.082626,36.991835 14.177634,38.885104 16.81434,39.087928 C 15.09441,38.371074 14.926981,36.668376 14.00184,33.259803 C 13.657042,31.989435 12.714573,31.222343 11.892465,31.228553 z "
         style="fill:white;fill-opacity:1;fill-rule:evenodd;stroke:none;stroke-width:1;stroke-linecap:butt;stroke-linejoin:miter;stroke-miterlimit:4;stroke-dasharray:none;stroke-opacity:1"
         id="path2817" />
      <path
         d="M 17.808421,20.865915 C 17.907978,20.993108 17.903892,21.259584 18.131412,21.214814 C 18.362887,21.247256 18.678538,21.139067 18.83596,21.290626 C 20.80978,23.190946 22.666486,25.26365 24.58175,27.250164 C 24.791143,27.265118 24.990502,27.271077 24.921092,27.036092 C 24.985316,25.48413 25.049539,23.932169 25.113764,22.380208 C 26.381294,23.707511 27.648825,25.034811 28.916357,26.362114 C 29.069738,26.312185 29.347387,26.351188 29.261274,26.129866 C 29.221415,23.932979 29.074503,21.704256 29.141699,19.539207 C 29.150088,19.268891 29.270714,18.962086 29.47039,18.808606 C 29.60829,18.70261 29.829996,18.705879 29.661061,18.500119 C 29.583311,18.348798 29.329453,18.532177 29.176824,18.523168 C 28.530705,18.65881 27.884584,18.794452 27.238462,18.930093 C 27.296501,19.114667 27.365746,19.281483 27.59744,19.190944 C 27.768079,19.204536 27.965268,19.1023 28.119264,19.188504 C 28.308253,19.296587 28.365816,19.424415 28.36983,19.614514 C 28.401999,21.139283 28.5206,22.681299 28.595986,24.214692 C 27.395432,22.968349 26.194881,21.722004 24.994327,20.475659 C 24.829252,20.290273 24.771622,20.087052 24.858458,19.989603 C 25.021667,19.806447 25.282075,19.64399 25.596654,19.625603 C 25.707166,19.620706 25.558181,19.234621 25.436268,19.308434 C 24.283476,19.550443 23.130684,19.792452 21.977893,20.034461 C 22.05815,20.208189 22.157845,20.3492 22.376861,20.28935 C 22.62781,20.287618 22.879231,20.276317 23.124157,20.396998 C 23.401379,20.458064 23.524611,20.731401 23.724061,20.899671 C 23.990806,21.178613 24.257551,21.457553 24.524295,21.736492 C 24.458636,22.927054 24.392978,24.117613 24.327319,25.308174 C 23.103265,23.971744 21.79007,22.660619 20.655154,21.298885 C 20.53296,21.15227 20.517818,20.956447 20.62516,20.799016 C 20.722655,20.656024 20.838245,20.587447 21.028535,20.57768 C 21.284391,20.61522 21.016831,20.302032 20.949496,20.24996 C 19.90247,20.455279 18.855445,20.660598 17.808421,20.865915 z "
         style="fill:black;fill-opacity:1;fill-rule:evenodd;stroke:none;stroke-width:1px;stroke-linecap:butt;stroke-linejoin:miter;stroke-opacity:1"
         id="path2881" />
    </g>
  </g>
</svg>
